SourceSerif_Regular.ufo
<glyph name="at" format="1">
	<unicode hex="0040"/>
	<advance width="832"/>
	<outline>
		<contour>
			<point x="367" y="101" type="curve" smooth="yes"/>
			<point x="319" y="101"/>
			<point x="297" y="133"/>
			<point x="297" y="197" type="curve" smooth="yes"/>
			<point x="297" y="269"/>
			<point x="323" y="323"/>
			<point x="353" y="364" type="curve" smooth="yes"/>
			<point x="385" y="408"/>
			<point x="424" y="425"/>
			<point x="455" y="425" type="curve" smooth="yes"/>
			<point x="484" y="425"/>
			<point x="510" y="410"/>
			<point x="535" y="364" type="curve"/>
			<point x="564" y="410" type="line"/>
			<point x="529" y="456"/>
			<point x="500" y="470"/>
			<point x="464" y="470" type="curve" smooth="yes"/>
			<point x="410" y="470"/>
			<point x="358" y="439"/>
			<point x="314" y="386" type="curve" smooth="yes"/>
			<point x="268" y="332"/>
			<point x="231" y="258"/>
			<point x="231" y="173" type="curve" smooth="yes"/>
			<point x="231" y="81"/>
			<point x="284" y="43"/>
			<point x="338" y="43" type="curve" smooth="yes"/>
			<point x="406" y="43"/>
			<point x="461" y="103"/>
			<point x="516" y="173" type="curve"/>
			<point x="511" y="188" type="line"/>
			<point x="438" y="120"/>
			<point x="403" y="101"/>
		</contour>
		<contour>
			<point x="467" y="606" type="curve" smooth="yes"/>
			<point x="621" y="606"/>
			<point x="739" y="505"/>
			<point x="739" y="333" type="curve" smooth="yes"/>
			<point x="739" y="158"/>
			<point x="662" y="89"/>
			<point x="593" y="89" type="curve" smooth="yes"/>
			<point x="549" y="89"/>
			<point x="528" y="118"/>
			<point x="538" y="167" type="curve"/>
			<point x="596" y="454" type="line"/>
			<point x="577" y="470" type="line"/>
			<point x="528" y="446" type="line"/>
			<point x="471" y="149" type="line"/>
			<point x="475" y="134" type="line"/>
			<point x="479" y="83"/>
			<point x="516" y="43"/>
			<point x="577" y="43" type="curve" smooth="yes"/>
			<point x="667" y="43"/>
			<point x="797" y="127"/>
			<point x="797" y="323" type="curve" smooth="yes"/>
			<point x="797" y="513"/>
			<point x="676" y="646"/>
			<point x="473" y="646" type="curve" smooth="yes"/>
			<point x="225" y="646"/>
			<point x="35" y="451"/>
			<point x="35" y="205" type="curve" smooth="yes"/>
			<point x="35" y="-35"/>
			<point x="197" y="-155"/>
			<point x="397" y="-155" type="curve" smooth="yes"/>
			<point x="455" y="-155"/>
			<point x="526" y="-143"/>
			<point x="584" y="-113" type="curve"/>
			<point x="572" y="-84" type="line"/>
			<point x="528" y="-105"/>
			<point x="479" y="-115"/>
			<point x="418" y="-115" type="curve" smooth="yes"/>
			<point x="247" y="-115"/>
			<point x="95" y="-9"/>
			<point x="95" y="213" type="curve" smooth="yes"/>
			<point x="95" y="417"/>
			<point x="246" y="606"/>
		</contour>
	</outline>
</glyph>
<glyph name="S" format="1">
	<unicode hex="0053"/>
	<advance width="510"/>
	<outline>
		<contour>
			<point x="231" y="35" type="curve" smooth="yes"/>
			<point x="163" y="35"/>
			<point x="129" y="55"/>
			<point x="67" y="100" type="curve"/>
			<point x="67" y="52" type="line"/>
			<point x="132" y="24" type="line"/>
			<point x="106" y="178" type="line"/>
			<point x="46" y="178" type="line"/>
			<point x="40" y="38" type="line"/>
			<point x="86" y="9"/>
			<point x="159" y="-15"/>
			<point x="234" y="-15" type="curve" smooth="yes"/>
			<point x="371" y="-15"/>
			<point x="470" y="57"/>
			<point x="470" y="175" type="curve" smooth="yes"/>
			<point x="470" y="269"/>
			<point x="419" y="327"/>
			<point x="287" y="378" type="curve" smooth="yes"/>
			<point x="248" y="393" type="line" smooth="yes"/>
			<point x="175" y="421"/>
			<point x="134" y="458"/>
			<point x="134" y="521" type="curve" smooth="yes"/>
			<point x="134" y="596"/>
			<point x="193" y="635"/>
			<point x="271" y="635" type="curve" smooth="yes"/>
			<point x="324" y="635"/>
			<point x="361" y="618"/>
			<point x="410" y="570" type="curve"/>
			<point x="410" y="620" type="line"/>
			<point x="346" y="653" type="line"/>
			<point x="374" y="502" type="line"/>
			<point x="434" y="502" type="line"/>
			<point x="440" y="632" type="line"/>
			<point x="397" y="664"/>
			<point x="344" y="685"/>
			<point x="277" y="685" type="curve" smooth="yes"/>
			<point x="150" y="685"/>
			<point x="53" y="615"/>
			<point x="53" y="500" type="curve" smooth="yes"/>
			<point x="53" y="398"/>
			<point x="123" y="340"/>
			<point x="225" y="300" type="curve" smooth="yes"/>
			<point x="263" y="285" type="line" smooth="yes"/>
			<point x="350" y="251"/>
			<point x="389" y="222"/>
			<point x="389" y="157" type="curve" smooth="yes"/>
			<point x="389" y="79"/>
			<point x="326" y="35"/>
		</contour>
		<contour>
			<point name="aboveUC" x="257" y="691" type="move"/>
		</contour>
		<contour>
			<point name="belowLC" x="244" y="-22" type="move"/>
		</contour>
		<contour>
			<point name="baseLC" x="242" y="0" type="move"/>
		</contour>
	</outline>
</glyph>
<glyph name="o" format="1">
	<unicode hex="006F"/>
	<advance width="548"/>
	<outline>
		<contour>
			<point x="274" y="-13" type="curve" smooth="yes"/>
			<point x="387" y="-13"/>
			<point x="502" y="69"/>
			<point x="502" y="235" type="curve" smooth="yes"/>
			<point x="502" y="401"/>
			<point x="387" y="487"/>
			<point x="274" y="487" type="curve" smooth="yes"/>
			<point x="159" y="487"/>
			<point x="46" y="401"/>
			<point x="46" y="235" type="curve" smooth="yes"/>
			<point x="46" y="69"/>
			<point x="159" y="-13"/>
		</contour>
		<contour>
			<point x="274" y="32" type="curve" smooth="yes"/>
			<point x="185" y="32"/>
			<point x="136" y="101"/>
			<point x="136" y="235" type="curve" smooth="yes"/>
			<point x="136" y="369"/>
			<point x="185" y="442"/>
			<point x="274" y="442" type="curve" smooth="yes"/>
			<point x="361" y="442"/>
			<point x="412" y="369"/>
			<point x="412" y="235" type="curve" smooth="yes"/>
			<point x="412" y="101"/>
			<point x="361" y="32"/>
		</contour>
		<contour>
			<point name="aboveLC" x="274" y="506" type="move"/>
		</contour>
		<contour>
			<point name="belowLC" x="275" y="-22" type="move"/>
		</contour>
		<contour>
			<point name="hornLC" x="392" y="480" type="move"/>
		</contour>
		<contour>
			<point name="ogonek" x="350" y="0" type="move"/>
		</contour>
	</outline>
</glyph>
<glyph name="t" format="1">
	<unicode hex="0074"/>
	<advance width="323"/>
	<outline>
		<contour>
			<point x="133" y="474" type="line"/>
			<point x="133" y="422" type="line"/>
			<point x="311" y="422" type="line"/>
			<point x="311" y="474" type="line"/>
		</contour>
		<contour>
			<point x="173" y="111" type="curve" smooth="yes"/>
			<point x="173" y="435" type="line"/>
			<point x="181" y="610" type="line"/>
			<point x="123" y="610" type="line"/>
			<point x="93" y="448" type="line"/>
			<point x="133" y="481" type="line"/>
			<point x="9" y="465" type="line"/>
			<point x="9" y="422" type="line"/>
			<point x="93" y="422" type="line"/>
			<point x="93" y="184" type="line" smooth="yes"/>
			<point x="93" y="145"/>
			<point x="92" y="124"/>
			<point x="92" y="100" type="curve" smooth="yes"/>
			<point x="92" y="23"/>
			<point x="135" y="-13"/>
			<point x="204" y="-13" type="curve" smooth="yes"/>
			<point x="254" y="-13"/>
			<point x="295" y="6"/>
			<point x="320" y="38" type="curve"/>
			<point x="297" y="65" type="line"/>
			<point x="271" y="46"/>
			<point x="251" y="37"/>
			<point x="229" y="37" type="curve" smooth="yes"/>
			<point x="195" y="37"/>
			<point x="173" y="59"/>
		</contour>
		<contour>
			<point name="aboveLC" x="160" y="638" type="move"/>
		</contour>
		<contour>
			<point name="belowLC" x="193" y="-22" type="move"/>
		</contour>
		<contour>
			<point name="baseLC" x="193" y="0" type="move"/>
		</contour>
	</outline>
</glyph>
<glyph name="y" format="1">
	<unicode hex="0079"/>
	<advance width="511"/>
	<outline>
		<contour>
			<point x="441" y="424" type="line"/>
			<point x="511" y="439" type="line"/>
			<point x="511" y="474" type="line"/>
			<point x="315" y="474" type="line"/>
			<point x="315" y="439" type="line"/>
			<point x="421" y="424" type="line"/>
		</contour>
		<contour>
			<point x="122" y="424" type="line"/>
			<point x="242" y="438" type="line"/>
			<point x="242" y="474" type="line"/>
			<point x="4" y="474" type="line"/>
			<point x="4" y="439" type="line"/>
			<point x="102" y="424" type="line"/>
		</contour>
		<contour>
			<point x="292" y="48" type="line"/>
			<point x="135" y="474" type="line"/>
			<point x="42" y="474" type="line"/>
			<point x="251" y="-52" type="line"/>
		</contour>
		<contour>
			<point x="91" y="-250" type="curve" smooth="yes"/>
			<point x="173" y="-250"/>
			<point x="229" y="-174"/>
			<point x="297" y="6" type="curve" smooth="yes"/>
			<point x="475" y="474" type="line"/>
			<point x="421" y="474" type="line"/>
			<point x="267" y="49" type="line"/>
			<point x="236" y="-38" type="line" smooth="yes"/>
			<point x="211" y="-108"/>
			<point x="171" y="-177"/>
			<point x="104" y="-210" type="curve"/>
			<point x="131" y="-232" type="line"/>
			<point x="170" y="-210" type="line"/>
			<point x="139" y="-179" type="line" smooth="yes"/>
			<point x="112" y="-152"/>
			<point x="92" y="-142"/>
			<point x="66" y="-142" type="curve" smooth="yes"/>
			<point x="36" y="-142"/>
			<point x="7" y="-156"/>
			<point x="0" y="-184" type="curve"/>
			<point x="0" y="-223"/>
			<point x="42" y="-250"/>
		</contour>
		<contour>
			<point name="aboveLC" x="270" y="506" type="move"/>
		</contour>
		<contour>
			<point name="belowLC" x="123" y="-255" type="move"/>
		</contour>
	</outline>
</glyph>
<glyph name="Oslash" format="1">
	<unicode hex="00D8"/>
	<advance width="707"/>
	<outline>
		<contour>
			<point x="646" y="657" type="line"/>
			<point x="604" y="690" type="line"/>
			<point x="52" y="13" type="line"/>
			<point x="94" y="-20" type="line"/>
		</contour>
		<component base="O"/>
		<contour>
			<point name="aboveUC" x="353" y="691" type="move"/>
		</contour>
	</outline>
</glyph>
<glyph name="Aogonek" format="1">
	<unicode hex="0104"/>
	<advance width="663"/>
	<outline>
		<component base="A"/>
		<component base="ogonekcmb" xOffset="546"/>
		<contour>
			<point name="aboveUC" x="321" y="691" type="move"/>
		</contour>
	</outline>
</glyph>
<glyph name="Iogonek" format="1">
	<unicode hex="012E"/>
	<advance width="370"/>
	<outline>
		<component base="I"/>
		<component base="ogonekcmb" xOffset="204"/>
		<contour>
			<point name="aboveUC" x="185" y="691" type="move"/>
		</contour>
	</outline>
</glyph>
<glyph name="dotlessi" format="1">
	<unicode hex="0131"/>
	<advance width="297"/>
	<outline>
		<contour>
			<point x="110" y="0" type="curve"/>
			<point x="196" y="0" type="line"/>
			<point x="194" y="45"/>
			<point x="193" y="148"/>
			<point x="193" y="210" type="curve" smooth="yes"/>
			<point x="193" y="342" type="line"/>
			<point x="196" y="477" type="line"/>
			<point x="181" y="487" type="line"/>
			<point x="30" y="427" type="line"/>
			<point x="30" y="392" type="line"/>
			<point x="110" y="383" type="line"/>
			<point x="112" y="343"/>
			<point x="113" y="312"/>
			<point x="113" y="257" type="curve" smooth="yes"/>
			<point x="113" y="210" type="line" smooth="yes"/>
			<point x="113" y="148"/>
			<point x="112" y="45"/>
		</contour>
		<contour>
			<point x="35" y="0" type="line"/>
			<point x="265" y="0" type="line"/>
			<point x="265" y="35" type="line"/>
			<point x="165" y="55" type="line"/>
			<point x="145" y="55" type="line"/>
			<point x="35" y="35" type="line"/>
		</contour>
		<contour>
			<point name="aboveLC" x="147" y="506" type="move"/>
		</contour>
		<contour>
			<point name="belowLC" x="148" y="-22" type="move"/>
		</contour>
		<contour>
			<point name="ogonek" x="187" y="0" type="move"/>
		</contour>
	</outline>
</glyph>
<glyph name="Lslash" format="1">
	<unicode hex="0141"/>
	<advance width="597"/>
	<outline>
		<contour>
			<point x="396" y="460" type="line"/>
			<point x="185" y="339" type="line"/>
			<point x="185" y="283" type="line"/>
			<point x="396" y="404" type="line"/>
		</contour>
		<contour>
			<point x="185" y="344" type="line"/>
			<point x="45" y="264" type="line"/>
			<point x="45" y="209" type="line"/>
			<point x="185" y="288" type="line"/>
		</contour>
		<component base="L"/>
	</outline>
</glyph>
<glyph name="ohorn" format="1">
	<unicode hex="01A1"/>
	<advance width="548"/>
	<outline>
		<component base="o"/>
		<component base="horncmb" xOffset="405"/>
		<contour>
			<point name="aboveLC" x="274" y="506" type="move"/>
		</contour>
		<contour>
			<point name="belowLC" x="275" y="-22" type="move"/>
		</contour>
	</outline>
</glyph>
<glyph name="uhorn" format="1">
	<unicode hex="01B0"/>
	<advance width="582"/>
	<outline>
		<component base="u"/>
		<component base="horncmb" xOffset="480"/>
		<contour>
			<point name="aboveLC" x="282" y="506" type="move"/>
		</contour>
		<contour>
			<point name="belowLC" x="299" y="-22" type="move"/>
		</contour>
	</outline>
</glyph>
<glyph name="gscript" format="1">
	<unicode hex="0261"/>
	<advance width="559"/>
	<outline>
		<contour>
			<point x="142" y="-188" type="curve"/>
			<point x="182" y="-224" type="line"/>
			<point x="161" y="-148" type="line" smooth="yes"/>
			<point x="147" y="-99"/>
			<point x="136" y="-77"/>
			<point x="103" y="-77" type="curve" smooth="yes"/>
			<point x="81" y="-77"/>
			<point x="65" y="-87"/>
			<point x="53" y="-109" type="curve"/>
			<point x="71" y="-209"/>
			<point x="144" y="-250"/>
			<point x="235" y="-250" type="curve" smooth="yes"/>
			<point x="315" y="-250"/>
			<point x="375" y="-225"/>
			<point x="418" y="-170" type="curve" smooth="yes"/>
			<point x="459" y="-118"/>
			<point x="471" y="-52"/>
			<point x="471" y="104" type="curve" smooth="yes"/>
			<point x="471" y="342" type="line"/>
			<point x="474" y="477" type="line"/>
			<point x="459" y="487" type="line"/>
			<point x="391" y="415" type="line"/>
			<point x="391" y="72" type="line" smooth="yes"/>
			<point x="391" y="-50"/>
			<point x="383" y="-104"/>
			<point x="360" y="-142" type="curve" smooth="yes"/>
			<point x="334" y="-187"/>
			<point x="285" y="-205"/>
			<point x="247" y="-205" type="curve" smooth="yes"/>
			<point x="212" y="-205"/>
			<point x="178" y="-203"/>
		</contour>
		<contour>
			<point x="245" y="-13" type="curve" smooth="yes"/>
			<point x="319" y="-13"/>
			<point x="370" y="20"/>
			<point x="413" y="97" type="curve"/>
			<point x="404" y="123" type="line"/>
			<point x="358" y="65"/>
			<point x="322" y="42"/>
			<point x="272" y="42" type="curve" smooth="yes"/>
			<point x="192" y="42"/>
			<point x="131" y="106"/>
			<point x="131" y="232" type="curve" smooth="yes"/>
			<point x="131" y="372"/>
			<point x="198" y="432"/>
			<point x="280" y="432" type="curve" smooth="yes"/>
			<point x="322" y="432"/>
			<point x="357" y="418"/>
			<point x="407" y="360" type="curve"/>
			<point x="417" y="386" type="line"/>
			<point x="376" y="461"/>
			<point x="324" y="487"/>
			<point x="273" y="487" type="curve" smooth="yes"/>
			<point x="138" y="487"/>
			<point x="46" y="382"/>
			<point x="46" y="226" type="curve" smooth="yes"/>
			<point x="46" y="73"/>
			<point x="128" y="-13"/>
		</contour>
		<contour>
			<point name="aboveLC" x="281" y="506" type="move"/>
		</contour>
		<contour>
			<point name="belowLC" x="253" y="-255" type="move"/>
		</contour>
	</outline>
</glyph>
<glyph name="breve" format="1">
	<unicode hex="02D8"/>
	<advance width="400"/>
	<outline>
		<component base="brevecmb" xOffset="200"/>
		<contour>
			<point name="_aboveLC" x="200" y="506" type="move"/>
		</contour>
		<contour>
			<point name="aboveLC" x="200" y="712" type="move"/>
		</contour>
	</outline>
</glyph>
<glyph name="tildecmb" format="1">
	<unicode hex="0303"/>
	<outline>
		<contour>
			<point x="-162" y="586" type="curve"/>
			<point x="-136" y="577" type="line"/>
			<point x="-122" y="627"/>
			<point x="-104" y="658"/>
			<point x="-74" y="658" type="curve" smooth="yes"/>
			<point x="-47" y="658"/>
			<point x="-28" y="630"/>
			<point x="-5" y="609" type="curve" smooth="yes"/>
			<point x="14" y="591"/>
			<point x="35" y="575"/>
			<point x="68" y="575" type="curve" smooth="yes"/>
			<point x="124" y="575"/>
			<point x="150" y="626"/>
			<point x="162" y="703" type="curve"/>
			<point x="136" y="712" type="line"/>
			<point x="122" y="662"/>
			<point x="104" y="631"/>
			<point x="74" y="631" type="curve" smooth="yes"/>
			<point x="47" y="631"/>
			<point x="28" y="659"/>
			<point x="5" y="680" type="curve" smooth="yes"/>
			<point x="-15" y="698"/>
			<point x="-35" y="714"/>
			<point x="-68" y="714" type="curve" smooth="yes"/>
			<point x="-123" y="714"/>
			<point x="-151" y="663"/>
		</contour>
		<contour>
			<point name="_aboveLC" x="0" y="506" type="move"/>
		</contour>
	</outline>
</glyph>
<glyph name="macroncmb" format="1">
	<unicode hex="0304"/>
	<outline>
		<contour>
			<point x="-129" y="597" type="line"/>
			<point x="129" y="597" type="line"/>
			<point x="129" y="658" type="line"/>
			<point x="-129" y="658" type="line"/>
		</contour>
		<contour>
			<point name="_aboveLC" x="0" y="506" type="move"/>
		</contour>
	</outline>
</glyph>
<glyph name="dieresiscmb" format="1">
	<unicode hex="0308"/>
	<outline>
		<contour>
			<point x="104" y="597" type="curve" smooth="yes"/>
			<point x="136" y="597"/>
			<point x="162" y="621"/>
			<point x="162" y="653" type="curve" smooth="yes"/>
			<point x="162" y="685"/>
			<point x="136" y="709"/>
			<point x="104" y="709" type="curve" smooth="yes"/>
			<point x="72" y="709"/>
			<point x="45" y="685"/>
			<point x="45" y="653" type="curve" smooth="yes"/>
			<point x="45" y="621"/>
			<point x="72" y="597"/>
		</contour>
		<contour>
			<point x="-104" y="597" type="curve" smooth="yes"/>
			<point x="-72" y="597"/>
			<point x="-45" y="621"/>
			<point x="-45" y="653" type="curve" smooth="yes"/>
			<point x="-45" y="685"/>
			<point x="-72" y="709"/>
			<point x="-104" y="709" type="curve" smooth="yes"/>
			<point x="-136" y="709"/>
			<point x="-162" y="685"/>
			<point x="-162" y="653" type="curve" smooth="yes"/>
			<point x="-162" y="621"/>
			<point x="-136" y="597"/>
		</contour>
		<contour>
			<point name="_aboveLC" x="0" y="506" type="move"/>
		</contour>
		<contour>
			<point name="aboveLC" x="0" y="680" type="move"/>
		</contour>
	</outline>
</glyph>
<glyph name="commabelowcmb" format="1">
	<unicode hex="0326"/>
	<outline>
		<contour>
			<point x="61" y="-117" type="curve" smooth="yes"/>
			<point x="61" y="-104"/>
			<point x="59" y="-92"/>
			<point x="52" y="-71" type="curve"/>
			<point x="38" y="-58"/>
			<point x="23" y="-52"/>
			<point x="9" y="-52" type="curve" smooth="yes"/>
			<point x="-16" y="-52"/>
			<point x="-37" y="-70"/>
			<point x="-37" y="-96" type="curve" smooth="yes"/>
			<point x="-37" y="-126"/>
			<point x="-8" y="-153"/>
			<point x="26" y="-161" type="curve"/>
			<point x="22" y="-132" type="line"/>
			<point x="-2" y="-181"/>
			<point x="-33" y="-203"/>
			<point x="-82" y="-222" type="curve"/>
			<point x="-72" y="-250" type="line"/>
			<point x="-2" y="-227"/>
			<point x="61" y="-187"/>
		</contour>
		<contour>
			<point name="_belowLC" x="0" y="-22" type="move"/>
		</contour>
	</outline>
</glyph>
<glyph name="Delta" format="1">
	<unicode hex="0394"/>
	<advance width="638"/>
	<outline>
		<contour>
			<point x="24" y="0" type="line"/>
			<point x="57" y="0" type="line"/>
			<point x="311" y="599" type="line"/>
			<point x="288" y="599" type="line"/>
			<point x="529" y="0" type="line"/>
			<point x="608" y="0" type="line"/>
			<point x="608" y="40" type="line"/>
			<point x="352" y="675" type="line"/>
			<point x="292" y="675" type="line"/>
			<point x="24" y="40" type="line"/>
		</contour>
		<contour>
			<point x="47" y="0" type="line"/>
			<point x="573" y="0" type="line"/>
			<point x="573" y="80" type="line"/>
			<point x="47" y="80" type="line"/>
		</contour>
	</outline>
</glyph>
<glyph name="Theta" format="1">
	<unicode hex="0398"/>
	<advance width="707"/>
	<outline>
		<contour>
			<point x="354" y="-15" type="curve" smooth="yes"/>
			<point x="509" y="-15"/>
			<point x="659" y="116"/>
			<point x="659" y="335" type="curve" smooth="yes"/>
			<point x="659" y="563"/>
			<point x="508" y="685"/>
			<point x="354" y="685" type="curve" smooth="yes"/>
			<point x="200" y="685"/>
			<point x="48" y="554"/>
			<point x="48" y="335" type="curve" smooth="yes"/>
			<point x="48" y="107"/>
			<point x="199" y="-15"/>
		</contour>
		<contour>
			<point x="354" y="35" type="curve" smooth="yes"/>
			<point x="206" y="35"/>
			<point x="149" y="185"/>
			<point x="149" y="335" type="curve" smooth="yes"/>
			<point x="149" y="485"/>
			<point x="206" y="635"/>
			<point x="354" y="635" type="curve" smooth="yes"/>
			<point x="502" y="635"/>
			<point x="558" y="485"/>
			<point x="558" y="335" type="curve" smooth="yes"/>
			<point x="558" y="185"/>
			<point x="502" y="35"/>
		</contour>
		<contour>
			<point x="431" y="335" type="line"/>
			<point x="446" y="254" type="line"/>
			<point x="491" y="254" type="line"/>
			<point x="491" y="431" type="line"/>
			<point x="446" y="431" type="line"/>
			<point x="431" y="355" type="line"/>
		</contour>
		<contour>
			<point x="277" y="335" type="line"/>
			<point x="277" y="355" type="line"/>
			<point x="262" y="431" type="line"/>
			<point x="217" y="431" type="line"/>
			<point x="217" y="254" type="line"/>
			<point x="262" y="254" type="line"/>
		</contour>
		<contour>
			<point x="236" y="372" type="line"/>
			<point x="236" y="312" type="line"/>
			<point x="472" y="312" type="line"/>
			<point x="472" y="372" type="line"/>
		</contour>
	</outline>
</glyph>
<glyph name="Xi" format="1">
	<unicode hex="039E"/>
	<advance width="586"/>
	<outline>
		<contour>
			<point x="400" y="335" type="line"/>
			<point x="415" y="245" type="line"/>
			<point x="460" y="245" type="line"/>
			<point x="460" y="437" type="line"/>
			<point x="415" y="437" type="line"/>
			<point x="400" y="355" type="line"/>
		</contour>
		<contour>
			<point x="186" y="335" type="line"/>
			<point x="186" y="355" type="line"/>
			<point x="171" y="437" type="line"/>
			<point x="126" y="437" type="line"/>
			<point x="126" y="245" type="line"/>
			<point x="171" y="245" type="line"/>
		</contour>
		<contour>
			<point x="148" y="376" type="line"/>
			<point x="148" y="312" type="line"/>
			<point x="437" y="312" type="line"/>
			<point x="437" y="376" type="line"/>
		</contour>
		<contour>
			<point x="58" y="670" type="line"/>
			<point x="51" y="490" type="line"/>
			<point x="103" y="490" type="line"/>
			<point x="134" y="670" type="line"/>
			<point x="93" y="595" type="line"/>
			<point x="493" y="595" type="line"/>
			<point x="452" y="670" type="line"/>
			<point x="483" y="490" type="line"/>
			<point x="535" y="490" type="line"/>
			<point x="528" y="670" type="line"/>
		</contour>
		<contour>
			<point x="543" y="0" type="line"/>
			<point x="550" y="180" type="line"/>
			<point x="498" y="180" type="line"/>
			<point x="467" y="0" type="line"/>
			<point x="508" y="75" type="line"/>
			<point x="78" y="75" type="line"/>
			<point x="119" y="0" type="line"/>
			<point x="88" y="180" type="line"/>
			<point x="36" y="180" type="line"/>
			<point x="43" y="0" type="line"/>
		</contour>
	</outline>
</glyph>
<glyph name="Phi" format="1">
	<unicode hex="03A6"/>
	<advance width="712"/>
	<outline>
		<contour>
			<point x="35" y="342" type="curve" smooth="yes"/>
			<point x="35" y="219"/>
			<point x="117" y="106"/>
			<point x="317" y="106" type="curve" smooth="yes"/>
			<point x="356" y="106" type="line"/>
			<point x="356" y="152" type="line"/>
			<point x="318" y="152" type="line" smooth="yes"/>
			<point x="194" y="152"/>
			<point x="130" y="234"/>
			<point x="130" y="344" type="curve" smooth="yes"/>
			<point x="130" y="454"/>
			<point x="194" y="524"/>
			<point x="318" y="524" type="curve" smooth="yes"/>
			<point x="356" y="524" type="line"/>
			<point x="356" y="570" type="line"/>
			<point x="317" y="570" type="line" smooth="yes"/>
			<point x="136" y="570"/>
			<point x="35" y="463"/>
		</contour>
		<contour>
			<point x="216" y="642" type="line"/>
			<point x="346" y="627" type="line"/>
			<point x="371" y="627" type="line"/>
			<point x="496" y="642" type="line"/>
			<point x="496" y="682" type="line"/>
			<point x="216" y="682" type="line"/>
		</contour>
		<contour>
			<point x="216" y="-12" type="line"/>
			<point x="496" y="-12" type="line"/>
			<point x="496" y="28" type="line"/>
			<point x="371" y="43" type="line"/>
			<point x="346" y="43" type="line"/>
			<point x="216" y="28" type="line"/>
		</contour>
		<contour>
			<point x="313" y="-12" type="curve"/>
			<point x="399" y="-12" type="line"/>
			<point x="397" y="89"/>
			<point x="396" y="211"/>
			<point x="396" y="310" type="curve" smooth="yes"/>
			<point x="396" y="362" type="line" smooth="yes"/>
			<point x="396" y="468"/>
			<point x="397" y="577"/>
			<point x="399" y="682" type="curve"/>
			<point x="313" y="682" type="line"/>
			<point x="316" y="576"/>
			<point x="316" y="466"/>
			<point x="316" y="360" type="curve" smooth="yes"/>
			<point x="316" y="310" type="line" smooth="yes"/>
			<point x="316" y="205"/>
			<point x="316" y="89"/>
		</contour>
		<contour>
			<point x="356" y="106" type="line"/>
			<point x="395" y="106" type="line" smooth="yes"/>
			<point x="596" y="106"/>
			<point x="677" y="219"/>
			<point x="677" y="342" type="curve" smooth="yes"/>
			<point x="677" y="463"/>
			<point x="576" y="570"/>
			<point x="395" y="570" type="curve" smooth="yes"/>
			<point x="356" y="570" type="line"/>
			<point x="356" y="524" type="line"/>
			<point x="395" y="524" type="line" smooth="yes"/>
			<point x="518" y="524"/>
			<point x="582" y="454"/>
			<point x="582" y="344" type="curve" smooth="yes"/>
			<point x="582" y="234"/>
			<point x="518" y="152"/>
			<point x="395" y="152" type="curve" smooth="yes"/>
			<point x="356" y="152" type="line"/>
		</contour>
	</outline>
</glyph>
<glyph name="alpha" format="1">
	<unicode hex="03B1"/>
	<advance width="556"/>
	<outline>
		<contour>
			<point x="237" y="-13" type="curve" smooth="yes"/>
			<point x="315" y="-13"/>
			<point x="372" y="22"/>
			<point x="405" y="107" type="curve"/>
			<point x="385" y="108" type="line"/>
			<point x="391" y="17"/>
			<point x="419" y="-13"/>
			<point x="461" y="-13" type="curve" smooth="yes"/>
			<point x="495" y="-13"/>
			<point x="525" y="9"/>
			<point x="541" y="39" type="curve"/>
			<point x="533" y="64" type="line"/>
			<point x="519" y="59"/>
			<point x="503" y="55"/>
			<point x="490" y="55" type="curve" smooth="yes"/>
			<point x="459" y="55"/>
			<point x="446" y="71"/>
			<point x="446" y="126" type="curve" smooth="yes"/>
			<point x="446" y="203"/>
			<point x="461" y="346"/>
			<point x="479" y="472" type="curve"/>
			<point x="464" y="482" type="line"/>
			<point x="393" y="464" type="line"/>
			<point x="386" y="374" type="line"/>
			<point x="379" y="186" type="line" smooth="yes"/>
			<point x="376" y="96"/>
			<point x="315" y="34"/>
			<point x="254" y="34" type="curve" smooth="yes"/>
			<point x="175" y="34"/>
			<point x="124" y="107"/>
			<point x="124" y="250" type="curve" smooth="yes"/>
			<point x="124" y="354"/>
			<point x="166" y="442"/>
			<point x="254" y="442" type="curve" smooth="yes"/>
			<point x="313" y="442"/>
			<point x="364" y="398"/>
			<point x="384" y="314" type="curve"/>
			<point x="408" y="341" type="line"/>
			<point x="388" y="440"/>
			<point x="332" y="487"/>
			<point x="258" y="487" type="curve" smooth="yes"/>
			<point x="153" y="487"/>
			<point x="40" y="392"/>
			<point x="40" y="232" type="curve" smooth="yes"/>
			<point x="40" y="71"/>
			<point x="127" y="-13"/>
		</contour>
		<contour>
			<point name="aboveLC" x="285" y="506" type="move"/>
		</contour>
		<contour>
			<point name="belowLC" x="311" y="-22" type="move"/>
		</contour>
	</outline>
</glyph>
<glyph name="beta" format="1">
	<unicode hex="03B2"/>
	<advance width="565"/>
	<outline>
		<contour>
			<point x="80" y="-180" type="line"/>
			<point x="92" y="-190" type="line"/>
			<point x="171" y="-172" type="line"/>
			<point x="156" y="76" type="line"/>
			<point x="164" y="91" type="line"/>
			<point x="164" y="520" type="line" smooth="yes"/>
			<point x="164" y="631"/>
			<point x="213" y="695"/>
			<point x="286" y="695" type="curve" smooth="yes"/>
			<point x="354" y="695"/>
			<point x="393" y="644"/>
			<point x="393" y="569" type="curve" smooth="yes"/>
			<point x="393" y="480"/>
			<point x="334" y="426"/>
			<point x="241" y="409" type="curve"/>
			<point x="252" y="355" type="line"/>
			<point x="399" y="361"/>
			<point x="445" y="283"/>
			<point x="445" y="201" type="curve" smooth="yes"/>
			<point x="445" y="113"/>
			<point x="395" y="53"/>
			<point x="299" y="53" type="curve" smooth="yes"/>
			<point x="238" y="53"/>
			<point x="190" y="78"/>
			<point x="144" y="119" type="curve"/>
			<point x="133" y="107" type="line"/>
			<point x="172" y="21"/>
			<point x="247" y="-13"/>
			<point x="318" y="-13" type="curve" smooth="yes"/>
			<point x="421" y="-13"/>
			<point x="525" y="58"/>
			<point x="525" y="197" type="curve" smooth="yes"/>
			<point x="525" y="328"/>
			<point x="431" y="390"/>
			<point x="264" y="386" type="curve"/>
			<point x="272" y="376" type="line"/>
			<point x="419" y="389"/>
			<point x="473" y="497"/>
			<point x="473" y="573" type="curve" smooth="yes"/>
			<point x="473" y="679"/>
			<point x="395" y="740"/>
			<point x="297" y="740" type="curve" smooth="yes"/>
			<point x="176" y="740"/>
			<point x="87" y="646"/>
			<point x="87" y="500" type="curve" smooth="yes"/>
			<point x="86" y="10" type="line"/>
		</contour>
	</outline>
</glyph>
<glyph name="delta" format="1">
	<unicode hex="03B4"/>
	<advance width="518"/>
	<outline>
		<contour>
			<point x="40" y="225" type="curve" smooth="yes"/>
			<point x="40" y="91"/>
			<point x="127" y="-13"/>
			<point x="253" y="-13" type="curve" smooth="yes"/>
			<point x="396" y="-13"/>
			<point x="478" y="117"/>
			<point x="478" y="220" type="curve" smooth="yes"/>
			<point x="478" y="336"/>
			<point x="444" y="393"/>
			<point x="305" y="489" type="curve" smooth="yes"/>
			<point x="214" y="551"/>
			<point x="159" y="586"/>
			<point x="159" y="636" type="curve" smooth="yes"/>
			<point x="159" y="690"/>
			<point x="202" y="700"/>
			<point x="287" y="700" type="curve" smooth="yes"/>
			<point x="304" y="700"/>
			<point x="328" y="697"/>
			<point x="343" y="689" type="curve"/>
			<point x="331" y="717" type="line"/>
			<point x="240" y="726" type="line"/>
			<point x="332" y="644" type="line" smooth="yes"/>
			<point x="365" y="615"/>
			<point x="388" y="608"/>
			<point x="404" y="608" type="curve" smooth="yes"/>
			<point x="431" y="608"/>
			<point x="452" y="628"/>
			<point x="452" y="660" type="curve"/>
			<point x="410" y="716"/>
			<point x="335" y="740"/>
			<point x="266" y="740" type="curve" smooth="yes"/>
			<point x="171" y="740"/>
			<point x="94" y="704"/>
			<point x="94" y="633" type="curve" smooth="yes"/>
			<point x="94" y="561"/>
			<point x="169" y="509"/>
			<point x="250" y="457" type="curve"/>
			<point x="262" y="446" type="line"/>
			<point x="368" y="376"/>
			<point x="394" y="325"/>
			<point x="394" y="211" type="curve" smooth="yes"/>
			<point x="394" y="107"/>
			<point x="349" y="32"/>
			<point x="263" y="32" type="curve" smooth="yes"/>
			<point x="182" y="32"/>
			<point x="124" y="116"/>
			<point x="124" y="232" type="curve" smooth="yes"/>
			<point x="124" y="350"/>
			<point x="166" y="421"/>
			<point x="297" y="447" type="curve"/>
			<point x="278" y="471" type="line"/>
			<point x="119" y="466"/>
			<point x="40" y="349"/>
		</contour>
	</outline>
</glyph>
<glyph name="epsilon" format="1">
	<unicode hex="03B5"/>
	<advance width="415"/>
	<outline>
		<contour>
			<point x="40" y="117" type="curve" smooth="yes"/>
			<point x="40" y="33"/>
			<point x="121" y="-13"/>
			<point x="219" y="-13" type="curve" smooth="yes"/>
			<point x="301" y="-13"/>
			<point x="368" y="24"/>
			<point x="407" y="77" type="curve"/>
			<point x="388" y="100" type="line"/>
			<point x="336" y="63"/>
			<point x="295" y="47"/>
			<point x="236" y="47" type="curve" smooth="yes"/>
			<point x="166" y="47"/>
			<point x="125" y="82"/>
			<point x="125" y="133" type="curve" smooth="yes"/>
			<point x="125" y="177"/>
			<point x="155" y="220"/>
			<point x="282" y="220" type="curve" smooth="yes"/>
			<point x="287" y="220"/>
			<point x="297" y="220"/>
			<point x="310" y="218" type="curve"/>
			<point x="310" y="282" type="line"/>
			<point x="300" y="281"/>
			<point x="282" y="280"/>
			<point x="272" y="280" type="curve" smooth="yes"/>
			<point x="177" y="280"/>
			<point x="136" y="319"/>
			<point x="136" y="372" type="curve" smooth="yes"/>
			<point x="136" y="425"/>
			<point x="184" y="451"/>
			<point x="233" y="451" type="curve" smooth="yes"/>
			<point x="253" y="451"/>
			<point x="270" y="449"/>
			<point x="293" y="444" type="curve"/>
			<point x="283" y="461" type="line"/>
			<point x="212" y="461" type="line"/>
			<point x="264" y="422" type="line" smooth="yes"/>
			<point x="296" y="398"/>
			<point x="315" y="389"/>
			<point x="337" y="389" type="curve" smooth="yes"/>
			<point x="366" y="389"/>
			<point x="383" y="413"/>
			<point x="383" y="438" type="curve"/>
			<point x="358" y="473"/>
			<point x="307" y="487"/>
			<point x="242" y="487" type="curve" smooth="yes"/>
			<point x="125" y="487"/>
			<point x="61" y="432"/>
			<point x="61" y="360" type="curve" smooth="yes"/>
			<point x="61" y="296"/>
			<point x="118" y="241"/>
			<point x="243" y="237" type="curve"/>
			<point x="243" y="249" type="line"/>
			<point x="120" y="248"/>
			<point x="40" y="198"/>
		</contour>
		<contour>
			<point name="aboveLC" x="228" y="506" type="move"/>
		</contour>
		<contour>
			<point name="belowLC" x="234" y="-23" type="move"/>
		</contour>
	</outline>
</glyph>
<glyph name="psi" format="1">
	<unicode hex="03C8"/>
	<advance width="721"/>
	<outline>
		<contour>
			<point x="344" y="-192" type="line"/>
			<point x="354" y="-199" type="line"/>
			<point x="424" y="-182" type="line"/>
			<point x="412" y="612" type="line"/>
			<point x="359" y="612" type="line"/>
			<point x="351" y="10" type="line"/>
		</contour>
		<contour>
			<point x="371" y="37" type="line"/>
			<point x="232" y="37"/>
			<point x="182" y="94"/>
			<point x="182" y="178" type="curve" smooth="yes"/>
			<point x="182" y="252"/>
			<point x="187" y="299"/>
			<point x="187" y="364" type="curve" smooth="yes"/>
			<point x="187" y="455"/>
			<point x="164" y="484"/>
			<point x="101" y="484" type="curve" smooth="yes"/>
			<point x="71" y="484"/>
			<point x="43" y="468"/>
			<point x="24" y="444" type="curve"/>
			<point x="35" y="414" type="line"/>
			<point x="47" y="416"/>
			<point x="60" y="418"/>
			<point x="72" y="418" type="curve" smooth="yes"/>
			<point x="108" y="418"/>
			<point x="111" y="399"/>
			<point x="111" y="353" type="curve" smooth="yes"/>
			<point x="111" y="297"/>
			<point x="108" y="240"/>
			<point x="108" y="179" type="curve" smooth="yes"/>
			<point x="108" y="50"/>
			<point x="205" y="-13"/>
			<point x="361" y="-13" type="curve"/>
		</contour>
		<contour>
			<point x="381" y="-13" type="line"/>
			<point x="571" y="-13"/>
			<point x="661" y="89"/>
			<point x="661" y="314" type="curve" smooth="yes"/>
			<point x="661" y="360"/>
			<point x="661" y="412"/>
			<point x="654" y="468" type="curve"/>
			<point x="644" y="480"/>
			<point x="628" y="487"/>
			<point x="613" y="487" type="curve" smooth="yes"/>
			<point x="585" y="487"/>
			<point x="557" y="470"/>
			<point x="557" y="432" type="curve" smooth="yes"/>
			<point x="557" y="405"/>
			<point x="588" y="328"/>
			<point x="615" y="251" type="curve"/>
			<point x="615" y="381" type="line"/>
			<point x="603" y="381" type="line"/>
			<point x="606" y="363"/>
			<point x="608" y="338"/>
			<point x="608" y="321" type="curve" smooth="yes"/>
			<point x="608" y="102"/>
			<point x="535" y="37"/>
			<point x="391" y="37" type="curve"/>
		</contour>
	</outline>
</glyph>
<glyph name="omega" format="1">
	<unicode hex="03C9"/>
	<advance width="731"/>
	<outline>
		<contour>
			<point x="226" y="-13" type="curve" smooth="yes"/>
			<point x="301" y="-13"/>
			<point x="356" y="32"/>
			<point x="368" y="142" type="curve"/>
			<point x="356" y="142" type="line"/>
			<point x="369" y="35"/>
			<point x="425" y="-13"/>
			<point x="503" y="-13" type="curve" smooth="yes"/>
			<point x="599" y="-13"/>
			<point x="691" y="62"/>
			<point x="691" y="227" type="curve" smooth="yes"/>
			<point x="691" y="368"/>
			<point x="601" y="471"/>
			<point x="447" y="486" type="curve"/>
			<point x="443" y="445" type="line"/>
			<point x="559" y="425"/>
			<point x="607" y="342"/>
			<point x="607" y="218" type="curve" smooth="yes"/>
			<point x="607" y="86"/>
			<point x="560" y="41"/>
			<point x="502" y="41" type="curve" smooth="yes"/>
			<point x="440" y="41"/>
			<point x="400" y="83"/>
			<point x="400" y="168" type="curve" smooth="yes"/>
			<point x="400" y="208"/>
			<point x="407" y="280"/>
			<point x="409" y="354" type="curve"/>
			<point x="401" y="359" type="line"/>
			<point x="320" y="350" type="line"/>
			<point x="323" y="267"/>
			<point x="329" y="208"/>
			<point x="329" y="167" type="curve" smooth="yes"/>
			<point x="329" y="83"/>
			<point x="298" y="41"/>
			<point x="233" y="41" type="curve" smooth="yes"/>
			<point x="172" y="41"/>
			<point x="124" y="95"/>
			<point x="124" y="218" type="curve" smooth="yes"/>
			<point x="124" y="342"/>
			<point x="172" y="425"/>
			<point x="288" y="445" type="curve"/>
			<point x="284" y="486" type="line"/>
			<point x="130" y="471"/>
			<point x="40" y="368"/>
			<point x="40" y="222" type="curve" smooth="yes"/>
			<point x="40" y="62"/>
			<point x="132" y="-13"/>
		</contour>
		<contour>
			<point name="aboveLC" x="365" y="506" type="move"/>
		</contour>
		<contour>
			<point name="belowLC" x="357" y="-22" type="move"/>
		</contour>
	</outline>
</glyph>
<glyph name="koppa" format="1">
	<unicode hex="03D9"/>
	<advance width="514"/>
	<outline>
		<contour>
			<point x="234" y="20" type="line"/>
			<point x="218" y="-180" type="line"/>
			<point x="230" y="-190" type="line"/>
			<point x="309" y="-172" type="line"/>
			<point x="288" y="20" type="line"/>
		</contour>
		<component base="omicron"/>
		<contour>
			<point name="aboveLC" x="274" y="506" type="move"/>
		</contour>
	</outline>
</glyph>
<glyph name="stigma" format="1">
	<unicode hex="03DB"/>
	<advance width="441"/>
	<outline>
		<contour>
			<point x="192" y="-190" type="line"/>
			<point x="332" y="-190"/>
			<point x="399" y="-121"/>
			<point x="399" y="-46" type="curve" smooth="yes"/>
			<point x="399" y="12"/>
			<point x="366" y="40"/>
			<point x="293" y="61" type="curve" smooth="yes"/>
			<point x="223" y="81" type="line" smooth="yes"/>
			<point x="127" y="109"/>
			<point x="93" y="154"/>
			<point x="93" y="233" type="curve" smooth="yes"/>
			<point x="93" y="331"/>
			<point x="143" y="382"/>
			<point x="235" y="391" type="curve" smooth="yes"/>
			<point x="299" y="397" type="line" smooth="yes"/>
			<point x="365" y="403"/>
			<point x="395" y="420"/>
			<point x="414" y="498" type="curve" smooth="yes"/>
			<point x="433" y="574" type="line"/>
			<point x="395" y="579" type="line"/>
			<point x="381" y="538" type="line" smooth="yes"/>
			<point x="367" y="498"/>
			<point x="349" y="478"/>
			<point x="305" y="474" type="curve" smooth="yes"/>
			<point x="243" y="468" type="line" smooth="yes"/>
			<point x="134" y="457"/>
			<point x="38" y="371"/>
			<point x="38" y="224" type="curve" smooth="yes"/>
			<point x="38" y="78"/>
			<point x="105" y="34"/>
			<point x="197" y="10" type="curve" smooth="yes"/>
			<point x="255" y="-5" type="line" smooth="yes"/>
			<point x="332" y="-25"/>
			<point x="345" y="-38"/>
			<point x="345" y="-62" type="curve" smooth="yes"/>
			<point x="345" y="-93"/>
			<point x="288" y="-115"/>
			<point x="188" y="-125" type="curve"/>
		</contour>
	</outline>
</glyph>
<glyph name="Ie" format="1">
	<unicode hex="0415"/>
	<advance width="604"/>
	<outline>
		<component base="E"/>
		<contour>
			<point name="aboveUC" x="327" y="691" type="move"/>
		</contour>
	</outline>
</glyph>
<glyph name="Ka" format="1">
	<unicode hex="041A"/>
	<advance width="650"/>
	<outline>
		<contour>
			<point x="45" y="0" type="line"/>
			<point x="325" y="0" type="line"/>
			<point x="325" y="40" type="line"/>
			<point x="195" y="55" type="line"/>
			<point x="175" y="55" type="line"/>
			<point x="45" y="40" type="line"/>
		</contour>
		<contour>
			<point x="45" y="630" type="line"/>
			<point x="175" y="615" type="line"/>
			<point x="195" y="615" type="line"/>
			<point x="325" y="630" type="line"/>
			<point x="325" y="670" type="line"/>
			<point x="45" y="670" type="line"/>
		</contour>
		<contour>
			<point x="137" y="0" type="curve"/>
			<point x="233" y="0" type="line"/>
			<point x="230" y="103"/>
			<point x="230" y="207"/>
			<point x="230" y="320" type="curve" smooth="yes"/>
			<point x="230" y="347" type="line" smooth="yes"/>
			<point x="230" y="465"/>
			<point x="230" y="569"/>
			<point x="233" y="670" type="curve"/>
			<point x="137" y="670" type="line"/>
			<point x="140" y="567"/>
			<point x="140" y="463"/>
			<point x="140" y="360" type="curve" smooth="yes"/>
			<point x="140" y="310" type="line" smooth="yes"/>
			<point x="140" y="205"/>
			<point x="140" y="101"/>
		</contour>
		<contour>
			<point x="451" y="52" type="line" smooth="yes"/>
			<point x="465" y="5"/>
			<point x="497" y="-10"/>
			<point x="561" y="-10" type="curve" smooth="yes"/>
			<point x="591" y="-10"/>
			<point x="632" y="-6"/>
			<point x="650" y="0" type="curve"/>
			<point x="650" y="40" type="line"/>
			<point x="530" y="52" type="line"/>
			<point x="552" y="33" type="line"/>
			<point x="490" y="214" type="line" smooth="yes"/>
			<point x="461" y="300"/>
			<point x="399" y="338"/>
			<point x="281" y="344" type="curve"/>
			<point x="290" y="319" type="line"/>
			<point x="367" y="331"/>
			<point x="401" y="357"/>
			<point x="450" y="469" type="curve" smooth="yes"/>
			<point x="486" y="551"/>
			<point x="505" y="590"/>
			<point x="547" y="636" type="curve"/>
			<point x="473" y="591" type="line"/>
			<point x="492" y="585"/>
			<point x="524" y="579"/>
			<point x="555" y="579" type="curve" smooth="yes"/>
			<point x="603" y="579"/>
			<point x="624" y="609"/>
			<point x="624" y="634" type="curve" smooth="yes"/>
			<point x="624" y="659"/>
			<point x="606" y="684"/>
			<point x="573" y="687" type="curve"/>
			<point x="513" y="679"/>
			<point x="470" y="645"/>
			<point x="408" y="489" type="curve" smooth="yes"/>
			<point x="361" y="370"/>
			<point x="334" y="355"/>
			<point x="261" y="355" type="curve" smooth="yes"/>
			<point x="185" y="355" type="line"/>
			<point x="185" y="310" type="line"/>
			<point x="273" y="310" type="line" smooth="yes"/>
			<point x="342" y="310"/>
			<point x="380" y="289"/>
			<point x="397" y="232" type="curve" smooth="yes"/>
		</contour>
		<contour>
			<point name="aboveUC" x="354" y="691" type="move"/>
		</contour>
	</outline>
</glyph>
<glyph name="Ucyr" format="1">
	<unicode hex="0423"/>
	<advance width="632"/>
	<outline>
		<contour>
			<point x="14" y="630" type="line"/>
			<point x="124" y="615" type="line"/>
			<point x="144" y="615" type="line"/>
			<point x="270" y="630" type="line"/>
			<point x="270" y="670" type="line"/>
			<point x="14" y="670" type="line"/>
		</contour>
		<contour>
			<point x="308" y="131" type="line"/>
			<point x="353" y="225" type="line"/>
			<point x="161" y="670" type="line"/>
			<point x="61" y="670" type="line"/>
		</contour>
		<contour>
			<point x="107" y="65" type="curve"/>
			<point x="107" y="3"/>
			<point x="140" y="-15"/>
			<point x="181" y="-15" type="curve" smooth="yes"/>
			<point x="251" y="-15"/>
			<point x="287" y="34"/>
			<point x="316" y="101" type="curve" smooth="yes"/>
			<point x="565" y="670" type="line"/>
			<point x="506" y="670" type="line"/>
			<point x="325" y="225" type="line" smooth="yes"/>
			<point x="284" y="125"/>
			<point x="256" y="62"/>
			<point x="213" y="31" type="curve"/>
			<point x="219" y="14" type="line"/>
			<point x="267" y="33" type="line"/>
			<point x="223" y="81"/>
			<point x="202" y="95"/>
			<point x="169" y="95" type="curve" smooth="yes"/>
			<point x="139" y="95"/>
			<point x="120" y="85"/>
		</contour>
		<contour>
			<point x="402" y="630" type="line"/>
			<point x="502" y="615" type="line"/>
			<point x="522" y="615" type="line"/>
			<point x="623" y="630" type="line"/>
			<point x="623" y="670" type="line"/>
			<point x="402" y="670" type="line"/>
		</contour>
		<contour>
			<point name="aboveUC" x="346" y="691" type="move"/>
		</contour>
	</outline>
</glyph>
<glyph name="Ef" format="1">
	<unicode hex="0424"/>
	<advance width="718"/>
	<outline>
		<contour>
			<point x="30" y="335" type="curve" smooth="yes"/>
			<point x="30" y="196"/>
			<point x="123" y="105"/>
			<point x="297" y="105" type="curve" smooth="yes"/>
			<point x="354" y="105" type="line"/>
			<point x="354" y="148" type="line"/>
			<point x="301" y="148" type="line" smooth="yes"/>
			<point x="159" y="148"/>
			<point x="120" y="242"/>
			<point x="120" y="335" type="curve" smooth="yes"/>
			<point x="120" y="429"/>
			<point x="160" y="522"/>
			<point x="301" y="522" type="curve" smooth="yes"/>
			<point x="354" y="522" type="line"/>
			<point x="354" y="565" type="line"/>
			<point x="297" y="565" type="line" smooth="yes"/>
			<point x="119" y="565"/>
			<point x="30" y="474"/>
		</contour>
		<contour>
			<point x="219" y="-12" type="line"/>
			<point x="499" y="-12" type="line"/>
			<point x="499" y="28" type="line"/>
			<point x="369" y="45" type="line"/>
			<point x="349" y="45" type="line"/>
			<point x="219" y="28" type="line"/>
		</contour>
		<contour>
			<point x="219" y="642" type="line"/>
			<point x="349" y="627" type="line"/>
			<point x="369" y="627" type="line"/>
			<point x="499" y="642" type="line"/>
			<point x="499" y="682" type="line"/>
			<point x="219" y="682" type="line"/>
		</contour>
		<contour>
			<point x="316" y="-12" type="curve"/>
			<point x="402" y="-12" type="line"/>
			<point x="399" y="91"/>
			<point x="399" y="200"/>
			<point x="399" y="303" type="curve" smooth="yes"/>
			<point x="399" y="357" type="line" smooth="yes"/>
			<point x="399" y="462"/>
			<point x="399" y="581"/>
			<point x="402" y="682" type="curve"/>
			<point x="316" y="682" type="line"/>
			<point x="319" y="579"/>
			<point x="319" y="460"/>
			<point x="319" y="357" type="curve" smooth="yes"/>
			<point x="319" y="303" type="line" smooth="yes"/>
			<point x="319" y="198"/>
			<point x="319" y="89"/>
		</contour>
		<contour>
			<point x="364" y="105" type="line"/>
			<point x="421" y="105" type="line" smooth="yes"/>
			<point x="595" y="105"/>
			<point x="688" y="198"/>
			<point x="688" y="335" type="curve" smooth="yes"/>
			<point x="688" y="472"/>
			<point x="599" y="565"/>
			<point x="421" y="565" type="curve" smooth="yes"/>
			<point x="364" y="565" type="line"/>
			<point x="364" y="522" type="line"/>
			<point x="417" y="522" type="line" smooth="yes"/>
			<point x="558" y="522"/>
			<point x="598" y="429"/>
			<point x="598" y="335" type="curve" smooth="yes"/>
			<point x="598" y="242"/>
			<point x="559" y="148"/>
			<point x="417" y="148" type="curve" smooth="yes"/>
			<point x="364" y="148" type="line"/>
		</contour>
	</outline>
</glyph>
<glyph name="em" format="1">
	<unicode hex="043C"/>
	<advance width="742"/>
	<outline>
		<contour>
			<point x="329" y="40" type="line"/>
			<point x="378" y="40" type="line"/>
			<point x="568" y="474" type="line"/>
			<point x="525" y="474" type="line"/>
			<point x="357" y="89" type="line"/>
			<point x="387" y="89" type="line"/>
			<point x="216" y="474" type="line"/>
			<point x="137" y="474" type="line"/>
		</contour>
		<contour>
			<point x="547" y="0" type="line"/>
			<point x="627" y="0" type="line"/>
			<point x="625" y="45"/>
			<point x="624" y="146"/>
			<point x="624" y="210" type="curve" smooth="yes"/>
			<point x="624" y="264" type="line" smooth="yes"/>
			<point x="624" y="328"/>
			<point x="625" y="429"/>
			<point x="627" y="474" type="curve"/>
			<point x="552" y="474" type="line"/>
			<point x="547" y="210" type="line"/>
		</contour>
		<contour>
			<point x="45" y="0" type="line"/>
			<point x="231" y="0" type="line"/>
			<point x="231" y="35" type="line"/>
			<point x="151" y="55" type="line"/>
			<point x="131" y="55" type="line"/>
			<point x="45" y="35" type="line"/>
		</contour>
		<contour>
			<point x="471" y="0" type="line"/>
			<point x="697" y="0" type="line"/>
			<point x="697" y="35" type="line"/>
			<point x="597" y="55" type="line"/>
			<point x="577" y="55" type="line"/>
			<point x="471" y="35" type="line"/>
		</contour>
		<contour>
			<point x="115" y="0" type="line"/>
			<point x="162" y="0" type="line"/>
			<point x="162" y="210" type="line"/>
			<point x="152" y="474" type="line"/>
			<point x="115" y="474" type="line"/>
		</contour>
		<contour>
			<point x="45" y="439" type="line"/>
			<point x="131" y="419" type="line"/>
			<point x="151" y="419" type="line"/>
			<point x="151" y="474" type="line"/>
			<point x="45" y="474" type="line"/>
		</contour>
		<contour>
			<point x="577" y="419" type="line"/>
			<point x="597" y="419" type="line"/>
			<point x="697" y="439" type="line"/>
			<point x="697" y="474" type="line"/>
			<point x="577" y="474" type="line"/>
		</contour>
	</outline>
</glyph>
<glyph name="hard" format="1">
	<unicode hex="044A"/>
	<advance width="608"/>
	<outline>
		<contour>
			<point x="30" y="314" type="line"/>
			<point x="75" y="314" type="line"/>
			<point x="107" y="474" type="line"/>
			<point x="63" y="432" type="line"/>
			<point x="268" y="432" type="line"/>
			<point x="268" y="474" type="line"/>
			<point x="38" y="474" type="line"/>
		</contour>
		<contour>
			<point x="145" y="0" type="line"/>
			<point x="268" y="0" type="line"/>
			<point x="268" y="55" type="line"/>
			<point x="261" y="55" type="line"/>
			<point x="145" y="35" type="line"/>
		</contour>
		<contour>
			<point x="225" y="0" type="curve"/>
			<point x="311" y="0" type="line"/>
			<point x="309" y="45"/>
			<point x="308" y="146"/>
			<point x="308" y="210" type="curve" smooth="yes"/>
			<point x="308" y="264" type="line" smooth="yes"/>
			<point x="308" y="328"/>
			<point x="309" y="429"/>
			<point x="311" y="474" type="curve"/>
			<point x="225" y="474" type="line"/>
			<point x="227" y="429"/>
			<point x="228" y="328"/>
			<point x="228" y="264" type="curve" smooth="yes"/>
			<point x="228" y="210" type="line" smooth="yes"/>
			<point x="228" y="146"/>
			<point x="227" y="45"/>
		</contour>
		<contour>
			<point x="268" y="0" type="line"/>
			<point x="383" y="0" type="line" smooth="yes"/>
			<point x="518" y="0"/>
			<point x="573" y="67"/>
			<point x="573" y="144" type="curve" smooth="yes"/>
			<point x="573" y="220"/>
			<point x="522" y="292"/>
			<point x="390" y="292" type="curve" smooth="yes"/>
			<point x="350" y="292"/>
			<point x="306" y="290"/>
			<point x="268" y="285" type="curve"/>
			<point x="268" y="238" type="line"/>
			<point x="299" y="242"/>
			<point x="337" y="245"/>
			<point x="379" y="245" type="curve" smooth="yes"/>
			<point x="452" y="245"/>
			<point x="489" y="212"/>
			<point x="489" y="146" type="curve" smooth="yes"/>
			<point x="489" y="77"/>
			<point x="451" y="42"/>
			<point x="370" y="42" type="curve" smooth="yes"/>
			<point x="268" y="42" type="line"/>
		</contour>
		<contour>
			<point x="268" y="419" type="line"/>
			<point x="281" y="419" type="line"/>
			<point x="381" y="439" type="line"/>
			<point x="381" y="474" type="line"/>
			<point x="268" y="474" type="line"/>
		</contour>
	</outline>
</glyph>
<glyph name="soft" format="1">
	<unicode hex="044C"/>
	<advance width="503"/>
	<outline>
		<contour>
			<point x="45" y="0" type="line"/>
			<point x="158" y="0" type="line"/>
			<point x="158" y="55" type="line"/>
			<point x="151" y="55" type="line"/>
			<point x="45" y="35" type="line"/>
		</contour>
		<contour>
			<point x="45" y="439" type="line"/>
			<point x="151" y="419" type="line"/>
			<point x="171" y="419" type="line"/>
			<point x="271" y="439" type="line"/>
			<point x="271" y="474" type="line"/>
			<point x="45" y="474" type="line"/>
		</contour>
		<contour>
			<point x="115" y="0" type="curve"/>
			<point x="201" y="0" type="line"/>
			<point x="199" y="45"/>
			<point x="198" y="146"/>
			<point x="198" y="210" type="curve" smooth="yes"/>
			<point x="198" y="262" type="line" smooth="yes"/>
			<point x="198" y="326"/>
			<point x="199" y="429"/>
			<point x="201" y="474" type="curve"/>
			<point x="115" y="474" type="line"/>
			<point x="117" y="429"/>
			<point x="118" y="328"/>
			<point x="118" y="264" type="curve" smooth="yes"/>
			<point x="118" y="210" type="line" smooth="yes"/>
			<point x="118" y="146"/>
			<point x="117" y="45"/>
		</contour>
		<contour>
			<point x="159" y="0" type="line"/>
			<point x="280" y="0" type="line" smooth="yes"/>
			<point x="404" y="0"/>
			<point x="468" y="66"/>
			<point x="468" y="146" type="curve" smooth="yes"/>
			<point x="468" y="226"/>
			<point x="409" y="292"/>
			<point x="285" y="292" type="curve" smooth="yes"/>
			<point x="245" y="292"/>
			<point x="196" y="289"/>
			<point x="158" y="284" type="curve"/>
			<point x="158" y="237" type="line"/>
			<point x="190" y="242"/>
			<point x="232" y="245"/>
			<point x="265" y="245" type="curve" smooth="yes"/>
			<point x="351" y="245"/>
			<point x="384" y="214"/>
			<point x="384" y="142" type="curve" smooth="yes"/>
			<point x="384" y="75"/>
			<point x="342" y="42"/>
			<point x="267" y="42" type="curve" smooth="yes"/>
			<point x="159" y="42" type="line"/>
		</contour>
	</outline>
</glyph>
<glyph name="ghestroke" format="1">
	<unicode hex="0493"/>
	<advance width="456"/>
	<outline>
		<contour>
			<point x="45" y="227" type="line"/>
			<point x="311" y="227" type="line"/>
			<point x="311" y="269" type="line"/>
			<point x="45" y="269" type="line"/>
		</contour>
		<component base="ghe"/>
	</outline>
</glyph>
<glyph name="kabashkir" format="1">
	<unicode hex="04A1"/>
	<advance width="645"/>
	<outline>
		<contour>
			<point x="30" y="314" type="line"/>
			<point x="75" y="314" type="line"/>
			<point x="107" y="474" type="line"/>
			<point x="63" y="432" type="line"/>
			<point x="268" y="432" type="line"/>
			<point x="268" y="474" type="line"/>
			<point x="38" y="474" type="line"/>
		</contour>
		<contour>
			<point x="268" y="419" type="line"/>
			<point x="281" y="419" type="line"/>
			<point x="381" y="439" type="line"/>
			<point x="381" y="474" type="line"/>
			<point x="268" y="474" type="line"/>
		</contour>
		<contour>
			<point x="155" y="0" type="line"/>
			<point x="381" y="0" type="line"/>
			<point x="381" y="35" type="line"/>
			<point x="281" y="55" type="line"/>
			<point x="261" y="55" type="line"/>
			<point x="155" y="35" type="line"/>
		</contour>
		<contour>
			<point x="225" y="0" type="curve"/>
			<point x="311" y="0" type="line"/>
			<point x="309" y="45"/>
			<point x="308" y="146"/>
			<point x="308" y="225" type="curve" smooth="yes"/>
			<point x="308" y="252" type="line" smooth="yes"/>
			<point x="308" y="328"/>
			<point x="309" y="429"/>
			<point x="311" y="474" type="curve"/>
			<point x="225" y="474" type="line"/>
			<point x="227" y="429"/>
			<point x="228" y="328"/>
			<point x="228" y="264" type="curve" smooth="yes"/>
			<point x="228" y="210" type="line" smooth="yes"/>
			<point x="228" y="146"/>
			<point x="227" y="45"/>
		</contour>
		<contour>
			<point x="630" y="35" type="line"/>
			<point x="511" y="55" type="line"/>
			<point x="569" y="9" type="line"/>
			<point x="526" y="131" type="line" smooth="yes"/>
			<point x="499" y="207"/>
			<point x="453" y="238"/>
			<point x="360" y="246" type="curve"/>
			<point x="374" y="232" type="line"/>
			<point x="431" y="245"/>
			<point x="459" y="272"/>
			<point x="481" y="340" type="curve" smooth="yes"/>
			<point x="497" y="390"/>
			<point x="515" y="416"/>
			<point x="532" y="436" type="curve"/>
			<point x="472" y="397" type="line"/>
			<point x="504" y="393"/>
			<point x="519" y="390"/>
			<point x="549" y="390" type="curve" smooth="yes"/>
			<point x="593" y="390"/>
			<point x="610" y="409"/>
			<point x="611" y="438" type="curve" smooth="yes"/>
			<point x="611" y="462"/>
			<point x="599" y="480"/>
			<point x="569" y="487" type="curve"/>
			<point x="505" y="483"/>
			<point x="471" y="444"/>
			<point x="441" y="356" type="curve" smooth="yes"/>
			<point x="415" y="279"/>
			<point x="391" y="259"/>
			<point x="344" y="259" type="curve" smooth="yes"/>
			<point x="268" y="259" type="line"/>
			<point x="268" y="218" type="line"/>
			<point x="349" y="218" type="line" smooth="yes"/>
			<point x="400" y="218"/>
			<point x="425" y="202"/>
			<point x="441" y="155" type="curve" smooth="yes"/>
			<point x="476" y="51" type="line" smooth="yes"/>
			<point x="493" y="1"/>
			<point x="516" y="-11"/>
			<point x="569" y="-11" type="curve" smooth="yes"/>
			<point x="587" y="-11"/>
			<point x="611" y="-5"/>
			<point x="630" y="0" type="curve"/>
		</contour>
	</outline>
</glyph>
<glyph name="endescender" format="1">
	<unicode hex="04A3"/>
	<advance width="632"/>
	<outline>
		<contour>
			<point x="566" y="0" type="line"/>
			<point x="518" y="42" type="line"/>
			<point x="546" y="-150" type="line"/>
			<point x="591" y="-150" type="line"/>
			<point x="597" y="39" type="line"/>
			<point x="475" y="56" type="line"/>
			<point x="475" y="0" type="line"/>
		</contour>
		<component base="en"/>
	</outline>
</glyph>
<glyph name="Ustraightstroke" format="1">
	<unicode hex="04B0"/>
	<advance width="633"/>
	<outline>
		<contour>
			<point x="527" y="240" type="line"/>
			<point x="527" y="286" type="line"/>
			<point x="107" y="286" type="line"/>
			<point x="107" y="240" type="line"/>
		</contour>
		<component base="Ustraight"/>
		<contour>
			<point name="aboveUC" x="338" y="691" type="move"/>
		</contour>
	</outline>
</glyph>
<glyph name="Chedescender" format="1">
	<unicode hex="04B6"/>
	<advance width="704"/>
	<outline>
		<contour>
			<point x="551" y="0" type="line"/>
			<point x="636" y="0" type="line"/>
			<point x="580" y="40" type="line"/>
			<point x="607" y="-178" type="line"/>
			<point x="663" y="-178" type="line"/>
			<point x="669" y="41" type="line"/>
			<point x="551" y="53" type="line"/>
		</contour>
		<component base="Che"/>
	</outline>
</glyph>
<glyph name="f_l" format="1">
	<unicode hex="FB02"/>
	<advance width="610"/>
	<outline>
		<contour>
			<point x="116" y="0" type="curve"/>
			<point x="202" y="0" type="line"/>
			<point x="200" y="70"/>
			<point x="199" y="140"/>
			<point x="199" y="210" type="curve" smooth="yes"/>
			<point x="199" y="435" type="line"/>
			<point x="191" y="550"/>
			<point x="201" y="617"/>
			<point x="246" y="666" type="curve" smooth="yes"/>
			<point x="272" y="694"/>
			<point x="302" y="706"/>
			<point x="348" y="719" type="curve"/>
			<point x="287" y="723" type="line"/>
			<point x="316" y="700" type="line" smooth="yes"/>
			<point x="354" y="670"/>
			<point x="396" y="652"/>
			<point x="428" y="652" type="curve" smooth="yes"/>
			<point x="459" y="652"/>
			<point x="480" y="670"/>
			<point x="482" y="694" type="curve"/>
			<point x="471" y="731"/>
			<point x="413" y="750"/>
			<point x="355" y="750" type="curve" smooth="yes"/>
			<point x="310" y="750"/>
			<point x="255" y="739"/>
			<point x="204" y="696" type="curve" smooth="yes"/>
			<point x="145" y="645"/>
			<point x="129" y="580"/>
			<point x="119" y="465" type="curve"/>
			<point x="148" y="480" type="line"/>
			<point x="35" y="465" type="line"/>
			<point x="35" y="422" type="line"/>
			<point x="119" y="422" type="line"/>
			<point x="119" y="210" type="line" smooth="yes"/>
			<point x="119" y="140"/>
			<point x="118" y="70"/>
		</contour>
		<contour>
			<point x="36" y="0" type="line"/>
			<point x="292" y="0" type="line"/>
			<point x="292" y="35" type="line"/>
			<point x="169" y="55" type="line"/>
			<point x="149" y="55" type="line"/>
			<point x="36" y="35" type="line"/>
		</contour>
		<contour>
			<point x="159" y="422" type="line"/>
			<point x="337" y="422" type="line"/>
			<point x="337" y="474" type="line"/>
			<point x="159" y="474" type="line"/>
		</contour>
		<contour>
			<point x="339" y="0" type="line"/>
			<point x="585" y="0" type="line"/>
			<point x="585" y="35" type="line"/>
			<point x="472" y="55" type="line"/>
			<point x="452" y="55" type="line"/>
			<point x="339" y="35" type="line"/>
		</contour>
		<contour>
			<point x="419" y="0" type="curve"/>
			<point x="505" y="0" type="line"/>
			<point x="503" y="70"/>
			<point x="502" y="140"/>
			<point x="502" y="210" type="curve" smooth="yes"/>
			<point x="502" y="590" type="line"/>
			<point x="506" y="732" type="line"/>
			<point x="492" y="740" type="line"/>
			<point x="422" y="703" type="line"/>
			<point x="422" y="210" type="line" smooth="yes"/>
			<point x="422" y="140"/>
			<point x="421" y="70"/>
		</contour>
	</outline>
</glyph>
<glyph name="Chedescender.sc" format="1">
	<advance width="638"/>
	<outline>
		<contour>
			<point x="484" y="0" type="line"/>
			<point x="555" y="0" type="line"/>
			<point x="499" y="38" type="line"/>
			<point x="525" y="-149" type="line"/>
			<point x="580" y="-149" type="line"/>
			<point x="586" y="40" type="line"/>
			<point x="484" y="51" type="line"/>
		</contour>
		<component base="Che.sc"/>
	</outline>
</glyph>
<glyph name="Ghestroke.sc" format="1">
	<advance width="519"/>
	<outline>
		<contour>
			<point x="47" y="256" type="line"/>
			<point x="350" y="256" type="line"/>
			<point x="350" y="300" type="line"/>
			<point x="47" y="300" type="line"/>
		</contour>
		<component base="Ghe.sc"/>
	</outline>
</glyph>
<glyph name="Hadescender.sc" format="1">
	<advance width="598"/>
	<outline>
		<contour>
			<point x="439" y="0" type="line"/>
			<point x="538" y="0" type="line"/>
			<point x="483" y="38" type="line"/>
			<point x="509" y="-149" type="line"/>
			<point x="563" y="-149" type="line"/>
			<point x="569" y="40" type="line"/>
			<point x="439" y="54" type="line"/>
		</contour>
		<component base="Ha.sc"/>
	</outline>
</glyph>
<glyph name="Ustraightstroke.sc" format="1">
	<advance width="562"/>
	<outline>
		<contour>
			<point x="468" y="192" type="line"/>
			<point x="468" y="237" type="line"/>
			<point x="94" y="237" type="line"/>
			<point x="94" y="192" type="line"/>
		</contour>
		<component base="Ustraight.sc"/>
		<contour>
			<point name="aboveUC" x="297" y="572" type="move"/>
		</contour>
	</outline>
</glyph>
<glyph name="be.srb" format="1">
	<advance width="541"/>
	<outline>
		<contour>
			<point x="270" y="-13" type="curve" smooth="yes"/>
			<point x="404" y="-13"/>
			<point x="492" y="92"/>
			<point x="492" y="229" type="curve" smooth="yes"/>
			<point x="492" y="342"/>
			<point x="448" y="409"/>
			<point x="308" y="478" type="curve" smooth="yes"/>
			<point x="239" y="512"/>
			<point x="169" y="540"/>
			<point x="169" y="566" type="curve" smooth="yes"/>
			<point x="169" y="587"/>
			<point x="198" y="598"/>
			<point x="302" y="611" type="curve" smooth="yes"/>
			<point x="387" y="622"/>
			<point x="432" y="630"/>
			<point x="452" y="650" type="curve" smooth="yes"/>
			<point x="467" y="665"/>
			<point x="477" y="709"/>
			<point x="486" y="751" type="curve"/>
			<point x="460" y="759" type="line"/>
			<point x="436" y="714" type="line"/>
			<point x="393" y="706"/>
			<point x="358" y="701"/>
			<point x="298" y="691" type="curve" smooth="yes"/>
			<point x="147" y="667"/>
			<point x="101" y="631"/>
			<point x="101" y="579" type="curve" smooth="yes"/>
			<point x="101" y="513"/>
			<point x="163" y="487"/>
			<point x="259" y="444" type="curve" smooth="yes"/>
			<point x="376" y="391"/>
			<point x="408" y="333"/>
			<point x="408" y="222" type="curve" smooth="yes"/>
			<point x="408" y="93"/>
			<point x="349" y="32"/>
			<point x="275" y="32" type="curve" smooth="yes"/>
			<point x="195" y="32"/>
			<point x="137" y="104"/>
			<point x="137" y="230" type="curve" smooth="yes"/>
			<point x="137" y="344"/>
			<point x="171" y="415"/>
			<point x="303" y="450" type="curve"/>
			<point x="285" y="474" type="line"/>
			<point x="129" y="446"/>
			<point x="53" y="350"/>
			<point x="53" y="218" type="curve" smooth="yes"/>
			<point x="53" y="73"/>
			<point x="152" y="-13"/>
		</contour>
	</outline>
</glyph>
<glyph name="brevehoi" format="1">
	<outline>
		<component base="hoicmb.cap" yOffset="-30"/>
		<component base="brevecmb.cap" yOffset="-157"/>
		<contour>
			<point name="_aboveLC" x="0" y="506" type="move"/>
		</contour>
	</outline>
</glyph>
<glyph name="caroncmb.cap" format="1">
	<outline>
		<contour>
			<point x="-114" y="867" type="line"/>
			<point x="-137" y="847" type="line"/>
			<point x="-37" y="730" type="line"/>
			<point x="37" y="730" type="line"/>
			<point x="137" y="847" type="line"/>
			<point x="114" y="867" type="line"/>
			<point x="-42" y="751" type="line"/>
			<point x="42" y="751" type="line"/>
		</contour>
		<contour>
			<point name="_aboveUC" x="0" y="691" type="move"/>
		</contour>
	</outline>
</glyph>
<glyph name="circumflexcmb.cap" format="1">
	<outline>
		<contour>
			<point x="16" y="855" type="line"/>
			<point x="-16" y="855" type="line"/>
			<point x="-146" y="742" type="line"/>
			<point x="-127" y="718" type="line"/>
			<point x="42" y="815" type="line"/>
			<point x="-42" y="815" type="line"/>
			<point x="127" y="718" type="line"/>
			<point x="146" y="742" type="line"/>
		</contour>
		<contour>
			<point name="_aboveUC" x="0" y="691" type="move"/>
		</contour>
	</outline>
</glyph>
<glyph name="dieresismacron" format="1">
	<outline>
		<component base="dieresiscmb" yOffset="-20"/>
		<component base="macroncmb" yOffset="140"/>
		<contour>
			<point name="_aboveLC" x="0" y="506" type="move"/>
		</contour>
	</outline>
</glyph>
<glyph name="eight.cap" format="1">
	<advance width="497"/>
	<outline>
		<contour>
			<point x="44" y="156" type="curve" smooth="yes"/>
			<point x="44" y="44"/>
			<point x="131" y="-13"/>
			<point x="250" y="-13" type="curve" smooth="yes"/>
			<point x="363" y="-13"/>
			<point x="452" y="59"/>
			<point x="452" y="163" type="curve" smooth="yes"/>
			<point x="452" y="260"/>
			<point x="398" y="315"/>
			<point x="285" y="367" type="curve" smooth="yes"/>
			<point x="169" y="420"/>
			<point x="142" y="475"/>
			<point x="142" y="531" type="curve" smooth="yes"/>
			<point x="142" y="597"/>
			<point x="192" y="638"/>
			<point x="249" y="638" type="curve" smooth="yes"/>
			<point x="313" y="638"/>
			<point x="349" y="584"/>
			<point x="349" y="528" type="curve" smooth="yes"/>
			<point x="349" y="455"/>
			<point x="323" y="413"/>
			<point x="240" y="357" type="curve"/>
			<point x="278" y="343" type="line"/>
			<point x="391" y="402"/>
			<point x="421" y="471"/>
			<point x="421" y="526" type="curve" smooth="yes"/>
			<point x="421" y="617"/>
			<point x="354" y="683"/>
			<point x="251" y="683" type="curve" smooth="yes"/>
			<point x="149" y="683"/>
			<point x="66" y="619"/>
			<point x="66" y="518" type="curve" smooth="yes"/>
			<point x="66" y="432"/>
			<point x="109" y="365"/>
			<point x="216" y="315" type="curve" smooth="yes"/>
			<point x="335" y="259"/>
			<point x="371" y="219"/>
			<point x="371" y="158" type="curve" smooth="yes"/>
			<point x="371" y="85"/>
			<point x="323" y="31"/>
			<point x="252" y="31" type="curve" smooth="yes"/>
			<point x="177" y="31"/>
			<point x="124" y="87"/>
			<point x="124" y="162" type="curve" smooth="yes"/>
			<point x="124" y="239"/>
			<point x="164" y="280"/>
			<point x="245" y="325" type="curve"/>
			<point x="202" y="339" type="line"/>
			<point x="98" y="290"/>
			<point x="44" y="234"/>
		</contour>
	</outline>
</glyph>
<glyph name="five.cap" format="1">
	<advance width="497"/>
	<outline>
		<contour>
			<point x="99" y="378" type="line"/>
			<point x="142" y="378" type="line"/>
			<point x="159" y="635" type="line"/>
			<point x="132" y="590" type="line"/>
			<point x="437" y="590" type="line"/>
			<point x="437" y="670" type="line"/>
			<point x="112" y="670" type="line"/>
			<point x="91" y="356" type="line"/>
			<point x="119" y="349" type="line"/>
			<point x="150" y="356"/>
			<point x="183" y="360"/>
			<point x="211" y="360" type="curve" smooth="yes"/>
			<point x="309" y="360"/>
			<point x="370" y="302"/>
			<point x="370" y="198" type="curve" smooth="yes"/>
			<point x="370" y="98"/>
			<point x="317" y="32"/>
			<point x="218" y="32" type="curve" smooth="yes"/>
			<point x="190" y="32"/>
			<point x="160" y="37"/>
			<point x="125" y="52" type="curve"/>
			<point x="165" y="21" type="line"/>
			<point x="145" y="93" type="line" smooth="yes"/>
			<point x="131" y="145"/>
			<point x="118" y="160"/>
			<point x="88" y="160" type="curve" smooth="yes"/>
			<point x="65" y="160"/>
			<point x="47" y="149"/>
			<point x="38" y="127" type="curve"/>
			<point x="60" y="33"/>
			<point x="123" y="-13"/>
			<point x="224" y="-13" type="curve" smooth="yes"/>
			<point x="363" y="-13"/>
			<point x="455" y="77"/>
			<point x="455" y="208" type="curve" smooth="yes"/>
			<point x="455" y="345"/>
			<point x="366" y="420"/>
			<point x="237" y="420" type="curve" smooth="yes"/>
			<point x="188" y="420"/>
			<point x="146" y="411"/>
			<point x="99" y="393" type="curve"/>
		</contour>
	</outline>
</glyph>
<glyph name="macroncmb.cap" format="1">
	<outline>
		<contour>
			<point x="-150" y="760" type="line"/>
			<point x="150" y="760" type="line"/>
			<point x="150" y="821" type="line"/>
			<point x="-150" y="821" type="line"/>
		</contour>
		<contour>
			<point name="_aboveUC" x="0" y="691" type="move"/>
		</contour>
	</outline>
</glyph>
<glyph name="nine.cap" format="1">
	<advance width="497"/>
	<outline>
		<contour>
			<point x="114" y="479" type="curve" smooth="yes"/>
			<point x="114" y="584"/>
			<point x="170" y="638"/>
			<point x="236" y="638" type="curve" smooth="yes"/>
			<point x="310" y="638"/>
			<point x="361" y="567"/>
			<point x="361" y="406" type="curve" smooth="yes"/>
			<point x="361" y="216"/>
			<point x="285" y="88"/>
			<point x="76" y="19" type="curve"/>
			<point x="86" y="-18" type="line"/>
			<point x="347" y="43"/>
			<point x="447" y="220"/>
			<point x="447" y="418" type="curve" smooth="yes"/>
			<point x="447" y="579"/>
			<point x="370" y="683"/>
			<point x="241" y="683" type="curve" smooth="yes"/>
			<point x="115" y="683"/>
			<point x="29" y="597"/>
			<point x="29" y="470" type="curve" smooth="yes"/>
			<point x="29" y="345"/>
			<point x="117" y="269"/>
			<point x="223" y="269" type="curve" smooth="yes"/>
			<point x="305" y="269"/>
			<point x="369" y="309"/>
			<point x="406" y="393" type="curve"/>
			<point x="389" y="400" type="line"/>
			<point x="349" y="351"/>
			<point x="307" y="329"/>
			<point x="248" y="329" type="curve" smooth="yes"/>
			<point x="173" y="329"/>
			<point x="114" y="373"/>
		</contour>
	</outline>
</glyph>
<glyph name="one.cap" format="1">
	<advance width="497"/>
	<outline>
		<contour>
			<point x="84" y="626" type="line"/>
			<point x="84" y="586" type="line"/>
			<point x="218" y="597" type="line"/>
			<point x="218" y="211" type="line" smooth="yes"/>
			<point x="218" y="141"/>
			<point x="217" y="70"/>
			<point x="215" y="0" type="curve"/>
			<point x="301" y="0" type="line"/>
			<point x="299" y="70"/>
			<point x="298" y="141"/>
			<point x="298" y="211" type="curve" smooth="yes"/>
			<point x="298" y="526" type="line"/>
			<point x="302" y="669" type="line"/>
			<point x="288" y="679" type="line"/>
		</contour>
		<contour>
			<point x="298" y="59" type="line"/>
			<point x="218" y="59" type="line"/>
			<point x="74" y="35" type="line"/>
			<point x="74" y="0" type="line"/>
			<point x="443" y="0" type="line"/>
			<point x="443" y="35" type="line"/>
		</contour>
	</outline>
</glyph>
<glyph name="seven.cap" format="1">
	<advance width="497"/>
	<outline>
		<contour>
			<point x="134" y="10" type="line"/>
			<point x="144" y="0" type="line"/>
			<point x="223" y="0" type="line"/>
			<point x="461" y="620" type="line"/>
			<point x="461" y="670" type="line"/>
			<point x="50" y="670" type="line"/>
			<point x="50" y="590" type="line"/>
			<point x="427" y="590" type="line"/>
			<point x="410" y="620" type="line"/>
		</contour>
	</outline>
</glyph>
<glyph name="six.cap" format="1">
	<advance width="497"/>
	<outline>
		<contour>
			<point x="257" y="32" type="curve" smooth="yes"/>
			<point x="176" y="32"/>
			<point x="126" y="116"/>
			<point x="126" y="291" type="curve" smooth="yes"/>
			<point x="126" y="484"/>
			<point x="212" y="600"/>
			<point x="426" y="652" type="curve"/>
			<point x="420" y="683" type="line"/>
			<point x="172" y="654"/>
			<point x="40" y="482"/>
			<point x="40" y="278" type="curve" smooth="yes"/>
			<point x="40" y="94"/>
			<point x="122" y="-13"/>
			<point x="255" y="-13" type="curve" smooth="yes"/>
			<point x="371" y="-13"/>
			<point x="458" y="63"/>
			<point x="458" y="209" type="curve" smooth="yes"/>
			<point x="458" y="333"/>
			<point x="383" y="410"/>
			<point x="275" y="410" type="curve" smooth="yes"/>
			<point x="208" y="410"/>
			<point x="142" y="373"/>
			<point x="97" y="305" type="curve"/>
			<point x="114" y="291" type="line"/>
			<point x="154" y="335"/>
			<point x="208" y="350"/>
			<point x="255" y="350" type="curve" smooth="yes"/>
			<point x="325" y="350"/>
			<point x="373" y="304"/>
			<point x="373" y="194" type="curve" smooth="yes"/>
			<point x="373" y="86"/>
			<point x="328" y="32"/>
		</contour>
	</outline>
</glyph>
<glyph name="three.cap" format="1">
	<advance width="497"/>
	<outline>
		<contour>
			<point x="169" y="379" type="line"/>
			<point x="169" y="329" type="line"/>
			<point x="218" y="329" type="line" smooth="yes"/>
			<point x="321" y="329"/>
			<point x="372" y="271"/>
			<point x="372" y="183" type="curve" smooth="yes"/>
			<point x="372" y="96"/>
			<point x="317" y="32"/>
			<point x="223" y="32" type="curve" smooth="yes"/>
			<point x="200" y="32"/>
			<point x="168" y="35"/>
			<point x="133" y="49" type="curve"/>
			<point x="173" y="13" type="line"/>
			<point x="152" y="89" type="line" smooth="yes"/>
			<point x="138" y="138"/>
			<point x="127" y="160"/>
			<point x="94" y="160" type="curve" smooth="yes"/>
			<point x="72" y="160"/>
			<point x="56" y="150"/>
			<point x="44" y="128" type="curve"/>
			<point x="62" y="28"/>
			<point x="138" y="-13"/>
			<point x="234" y="-13" type="curve" smooth="yes"/>
			<point x="368" y="-13"/>
			<point x="457" y="71"/>
			<point x="457" y="179" type="curve" smooth="yes"/>
			<point x="457" y="278"/>
			<point x="395" y="349"/>
			<point x="267" y="360" type="curve"/>
			<point x="267" y="343" type="line"/>
			<point x="372" y="366"/>
			<point x="436" y="434"/>
			<point x="436" y="518" type="curve" smooth="yes"/>
			<point x="436" y="617"/>
			<point x="361" y="683"/>
			<point x="246" y="683" type="curve" smooth="yes"/>
			<point x="155" y="683"/>
			<point x="80" y="641"/>
			<point x="61" y="556" type="curve"/>
			<point x="70" y="528"/>
			<point x="89" y="519"/>
			<point x="111" y="519" type="curve" smooth="yes"/>
			<point x="146" y="519"/>
			<point x="157" y="540"/>
			<point x="169" y="583" type="curve" smooth="yes"/>
			<point x="188" y="652" type="line"/>
			<point x="145" y="624" type="line"/>
			<point x="180" y="635"/>
			<point x="209" y="638"/>
			<point x="230" y="638" type="curve" smooth="yes"/>
			<point x="309" y="638"/>
			<point x="354" y="594"/>
			<point x="354" y="512" type="curve" smooth="yes"/>
			<point x="354" y="429"/>
			<point x="300" y="379"/>
			<point x="209" y="379" type="curve" smooth="yes"/>
		</contour>
	</outline>
</glyph>
<glyph name="tildecmb.cap" format="1">
	<outline>
		<contour>
			<point x="-180" y="735" type="curve"/>
			<point x="-151" y="726" type="line"/>
			<point x="-135" y="776"/>
			<point x="-115" y="807"/>
			<point x="-82" y="807" type="curve" smooth="yes"/>
			<point x="-52" y="807"/>
			<point x="-31" y="779"/>
			<point x="-6" y="758" type="curve" smooth="yes"/>
			<point x="16" y="740"/>
			<point x="39" y="724"/>
			<point x="76" y="724" type="curve" smooth="yes"/>
			<point x="138" y="724"/>
			<point x="167" y="775"/>
			<point x="180" y="852" type="curve"/>
			<point x="151" y="861" type="line"/>
			<point x="135" y="811"/>
			<point x="116" y="780"/>
			<point x="82" y="780" type="curve" smooth="yes"/>
			<point x="52" y="780"/>
			<point x="31" y="808"/>
			<point x="6" y="829" type="curve" smooth="yes"/>
			<point x="-17" y="847"/>
			<point x="-39" y="863"/>
			<point x="-76" y="863" type="curve" smooth="yes"/>
			<point x="-137" y="863"/>
			<point x="-168" y="812"/>
		</contour>
		<contour>
			<point name="_aboveUC" x="0" y="691" type="move"/>
		</contour>
	</outline>
</glyph>
<glyph name="tonos.cap" format="1">
	<advance width="64"/>
	<outline>
		<contour>
			<point x="-30" y="446" type="curve"/>
			<point x="7" y="435" type="line"/>
			<point x="29" y="481"/>
			<point x="50" y="527"/>
			<point x="74" y="582" type="curve" smooth="yes"/>
			<point x="79" y="594"/>
			<point x="84" y="609"/>
			<point x="84" y="623" type="curve" smooth="yes"/>
			<point x="84" y="650"/>
			<point x="66" y="660"/>
			<point x="48" y="660" type="curve" smooth="yes"/>
			<point x="27" y="660"/>
			<point x="9" y="646"/>
			<point x="-7" y="574" type="curve" smooth="yes"/>
			<point x="-12" y="550"/>
			<point x="-22" y="498"/>
		</contour>
	</outline>
</glyph>
<glyph name="tonoscmb" format="1">
	<outline>
		<contour>
			<point x="-35" y="558" type="curve"/>
			<point x="0" y="542" type="line"/>
			<point x="28" y="585"/>
			<point x="55" y="627"/>
			<point x="63" y="641" type="curve" smooth="yes"/>
			<point x="95" y="693"/>
			<point x="100" y="709"/>
			<point x="100" y="725" type="curve" smooth="yes"/>
			<point x="100" y="748"/>
			<point x="85" y="759"/>
			<point x="67" y="759" type="curve" smooth="yes"/>
			<point x="46" y="759"/>
			<point x="29" y="747"/>
			<point x="3" y="671" type="curve" smooth="yes"/>
			<point x="-2" y="658"/>
			<point x="-18" y="608"/>
		</contour>
		<contour>
			<point name="_aboveLC" x="0" y="506" type="move"/>
		</contour>
	</outline>
</glyph>
